<svg xmlns="http://www.w3.org/2000/svg" version="1.1" xmlns:xlink="http://www.w3.org/1999/xlink" viewBox="0 0 200 200"><rect width="200" height="200" fill="url('#gradient')"></rect><defs><linearGradient id="gradient" gradientTransform="rotate(45 0.5 0.5)"><stop offset="0%" stop-color="#1d425b"></stop><stop offset="100%" stop-color="#000000"></stop></linearGradient></defs><g><g fill="#1d425b" transform="matrix(4.250922509225092,0,0,4.250922509225092,5.437137342027185,130.2071794900507)" stroke="#778ca7" stroke-width="0"><path d="M12.96-14.22L12.96 0L9.55 0L9.55-5.94L4.50-5.94L4.50 0L1.07 0L1.07-14.22L4.50-14.22L4.50-8.57L9.55-8.57L9.55-14.22L12.96-14.22ZM15.13-14.22L19.63-14.22L22.80-4.33L25.97-14.22L30.48-14.22L30.48 0L27.04 0L27.04-3.32L27.37-10.12L23.94 0L21.67 0L18.22-10.13L18.55-3.32L18.55 0L15.13 0L15.13-14.22ZM39.99-3.78L39.99-3.78Q39.99-4.53 39.46-4.95Q38.93-5.37 37.59-5.82Q36.25-6.27 35.40-6.69L35.40-6.69Q32.64-8.05 32.64-10.42L32.64-10.42Q32.64-11.60 33.33-12.50Q34.01-13.41 35.27-13.91Q36.53-14.41 38.11-14.41L38.11-14.41Q39.64-14.41 40.85-13.87Q42.07-13.32 42.74-12.31Q43.42-11.30 43.42-10L43.42-10L40-10Q40-10.87 39.47-11.35Q38.94-11.83 38.03-11.83L38.03-11.83Q37.11-11.83 36.58-11.42Q36.04-11.02 36.04-10.39L36.04-10.39Q36.04-9.84 36.63-9.40Q37.22-8.96 38.69-8.48Q40.17-8.01 41.11-7.46L41.11-7.46Q43.42-6.13 43.42-3.80L43.42-3.80Q43.42-1.93 42.01-0.87Q40.61 0.20 38.15 0.20L38.15 0.20Q36.43 0.20 35.02-0.42Q33.62-1.04 32.92-2.12Q32.21-3.20 32.21-4.61L32.21-4.61L35.64-4.61Q35.64-3.47 36.24-2.92Q36.83-2.38 38.15-2.38L38.15-2.38Q39.00-2.38 39.50-2.75Q39.99-3.12 39.99-3.78Z"></path></g></g></svg>